<svg xmlns="http://www.w3.org/2000/svg"  width="150" height="100" viewBox="0 0 206.13 61.08"><defs><style>.cls-1{fill:#eff4f4;fill-rule:evenodd;}</style></defs><g id="Layer_2" data-name="Layer 2"><g id="Layer_1-2" data-name="Layer 1"><path id="Fill-1" class="cls-1" d="M75.81,15.74V33.27H58.51V18a2.26,2.26,0,0,0-2.26-2.26H50.41V57.52a2.26,2.26,0,0,0,2.26,2.26h5.84V40.35h17.3V57.52a2.26,2.26,0,0,0,2.25,2.26H83.9V18a2.26,2.26,0,0,0-2.25-2.26H75.81"/><path id="Fill-2" class="cls-1" d="M109.77,26.12V47a5.33,5.33,0,0,1-2.61,4.64,6,6,0,0,1-9.33-5V28.38a2.26,2.26,0,0,0-2.26-2.26H89.71V47.36a12.46,12.46,0,0,0,12.43,12.42h3.32a12.46,12.46,0,0,0,12.43-12.42v-19a2.26,2.26,0,0,0-2.26-2.26h-5.86"/><path id="Fill-3" class="cls-1" d="M199.82,59.78h5.84V30.23A2.26,2.26,0,0,0,203.41,28h-5.84V57.52a2.26,2.26,0,0,0,2.25,2.26"/><path id="Fill-4" class="cls-1" d="M201.62,24.77a4.52,4.52,0,1,0-4.52-4.52,4.51,4.51,0,0,0,4.52,4.52"/><path id="Fill-5" class="cls-1" d="M146.38,45.81c0,4-3.29,6.68-7.3,6.68s-7.31-2.67-7.31-6.68V40.08c0-4,3.29-6.69,7.31-6.69s7.3,2.67,7.3,6.69Zm-7.3-19.71h0c-8.5,0-15.44,6.07-15.44,14.56v4.59c0,8.49,6.94,14.53,15.44,14.53s15.44-6,15.44-14.53V40.66c0-8.49-7-14.56-15.44-14.56Z"/><path id="Fill-6" class="cls-1" d="M183.13,45.81c0,4-3.29,6.68-7.3,6.68s-7.31-2.67-7.31-6.68V40.08c0-4,3.29-6.69,7.31-6.69s7.3,2.67,7.3,6.69Zm-7.3-19.71h0a16.71,16.71,0,0,0-7.35,1.67V18a2.26,2.26,0,0,0-2.25-2.26h-5.84V45.25c0,8.49,6.94,14.53,15.44,14.53s15.44-6,15.44-14.53V40.66c0-8.49-7-14.56-15.44-14.56Z"/><path id="Fill-15" class="cls-1" d="M26.17,18.8C26.17,10,21.89,2.49,18.64,0c0,0-.25-.14-.23.21h0C18.14,17.18,9.49,21.77,4.73,28c-11,14.26-.77,29.9,9.63,32.79,5.82,1.62-1.35-2.86-2.27-12.32C11,37,26.17,28.26,26.17,18.8"/><path id="Fill-16" class="cls-1" d="M31.16,24.56c-.07,0-.16-.07-.23,0-.18,2.14-2.36,6.69-5.12,10.88-9.36,14.2-4,21.05-1,24.72,1.74,2.14,0,0,4.35-2.18a19.61,19.61,0,0,0,9.38-15.16,22,22,0,0,0-7.36-18.29"/></g></g></svg>