<svg xmlns="http://www.w3.org/2000/svg" width="150" height="100" viewBox="0 0 242.89 60.84"><defs><style>.cls-1{fill:none;stroke:#eff4f4;stroke-width:2px;}.cls-2{fill:#eff4f4;}</style></defs><g id="Layer_2" data-name="Layer 2"><g id="Layer_1-2" data-name="Layer 1"><path class="cls-1" d="M1,27.54l13-6.45L1,14.58Z"/><path class="cls-1" d="M1,27.54v13l25.92-13L14,21.09Z"/><path class="cls-1" d="M1,40.5H39.88V34l-13-6.51Z"/><path class="cls-1" d="M1,1.62v13L14,21l13-6.44Z"/><path class="cls-1" d="M1,1.62l25.92,13,13-6.45V1.62Z"/><path class="cls-1" d="M26.92,14.58,14,21l13,6.45,13,6.51V8.06Z"/><path class="cls-2" d="M225.76,25.12a27.93,27.93,0,0,0-3.29.2c-2,.34-3.09,1.35-3.09,3.16a2.25,2.25,0,0,0,2.56,2.35,3.82,3.82,0,0,0,3.91-3.72,3.24,3.24,0,0,0,0-.44l-.07-1.55Zm-5.3,9.27c-3.69,0-6.05-2.35-6.05-5.84,0-3.23,2.09-5.18,5.51-6a24.35,24.35,0,0,1,5.84-.47c0-2.75-1.14-3.69-4-3.69a13,13,0,0,0-5.3,1.27v-4a15.12,15.12,0,0,1,6-1.14c6,0,8.19,2.75,8.19,7.86V30H233v3.83h-6.72l-.33-2h-.07a6.5,6.5,0,0,1-5.37,2.49m-60.64-9.27a27.8,27.8,0,0,0-3.29.2c-2,.34-3.09,1.35-3.09,3.16A2.24,2.24,0,0,0,156,30.83a3.81,3.81,0,0,0,3.91-3.72,3.27,3.27,0,0,0,0-.44,11.49,11.49,0,0,1-.07-1.55Zm-5.3,9.27c-3.7,0-6.05-2.35-6.05-5.84,0-3.23,2.08-5.17,5.51-6a24.35,24.35,0,0,1,5.84-.47c0-2.75-1.14-3.69-4-3.69a13.19,13.19,0,0,0-5.31,1.27v-4a15.15,15.15,0,0,1,6-1.14c6.05,0,8.26,2.75,8.26,7.86V30h2.35v3.83h-6.72l-.4-2H160a6.62,6.62,0,0,1-5.44,2.49m-69.3-9.27a27.8,27.8,0,0,0-3.29.2c-2,.34-3.09,1.35-3.09,3.16a2.24,2.24,0,0,0,2.55,2.35,3.81,3.81,0,0,0,3.91-3.72,3.27,3.27,0,0,0,0-.44l-.07-1.55ZM80,34.39c-3.69,0-6-2.35-6-5.84,0-3.23,2.08-5.17,5.5-6a24.47,24.47,0,0,1,5.85-.47c0-2.75-1.15-3.69-4-3.69A13.18,13.18,0,0,0,76,19.68v-4a15.12,15.12,0,0,1,6-1.14c6,0,8.26,2.75,8.26,7.86V30h2.42v3.83H86l-.4-2h-.07A7,7,0,0,1,80,34.39m103.76-10c0-3.56-1.75-5.91-4.44-5.91s-4.43,2.35-4.43,5.85,1.68,5.91,4.3,5.91,4.57-2.35,4.57-5.85m5,0c0,5.91-3.35,9.94-8.26,9.94-2.88,0-4.63-1.14-5.5-2.35h0v8L170,42V18.74h-2.49V14.91h7l.33,2.49h.07c.6-1,2.08-2.82,5.57-2.82,5,0,8.19,3.89,8.19,9.8m-71.51-9.8a7.49,7.49,0,0,0-6.12,2.82H111l-.34-2.49h-7.32v3.83h2.76V33.92h5v-8.8c0-4.7,2.49-6.45,4.64-6.45s3,1.28,3,4.24v11h4.9V21.76c-.06-4.7-2.28-7.18-6.37-7.18m22.43,15.24c-5,0-8-3.42-8-8.86s3-8.93,7.59-8.93a13,13,0,0,1,3.29.4V17.8L146.86,16V9.68a14.67,14.67,0,0,0-7.52-1.88c-7.72,0-13,4.76-13,13.29,0,8.06,4.7,13.3,13,13.3a16.74,16.74,0,0,0,7.59-1.88l-1.08-4.16a12.78,12.78,0,0,1-6.24,1.47m100.93.27V6.59l-5,2V33.92h7.32V30.09ZM67.15,26.26c0-2.48-1.82-3.76-4.84-3.76h-4.7v7.59h4.77c3.42-.07,4.84-1.61,4.77-3.83m-9.61-7.65h4c2.82,0,4.23-1.35,4.23-3.23,0-2.21-1.35-3.35-3.9-3.35h-4.3Zm14.84,7.85c0,4.91-3.89,7.46-9.73,7.46H52.51V12H49.42V8.2H61.84c3.36,0,5,.47,6.38,1.27a5.75,5.75,0,0,1,2.69,5.11,5.59,5.59,0,0,1-4.43,5.51v.06c3.69.61,5.91,3,5.91,6.31m117.72-7.72h2.68V33.92h4.9v-19h-7.58Zm2.68-7.12h4.9V7h-5l.06,4.63ZM93,18.74h2.69V33.92h5v-19H93Zm2.69-7.12h5V7h-5ZM208,14.91h5v3.83h-5v8.4c0,2.08.47,3.35,2.48,3.35a11.9,11.9,0,0,0,2.22-.33v3.69a19.11,19.11,0,0,1-3.83.54c-3.83,0-5.78-1.88-5.78-6V18.74h-2.68V14.91h2.68V11.69l4.91-2v5.23Z"/><path class="cls-2" d="M60.23,48.09l-3.09,9.8-3.09-9.8H51.43l4.23,12.42h2.76L62.65,48C62.65,48.09,60.23,48.09,60.23,48.09Zm4.43,0V60.51h8.19v-2h-5.7V54.94h5.17V53H67.15V50h5.5V48h-8Zm18.81,0v8.59l-5.31-8.59H75.54V60.58h2.35V51.51l5.58,9h2.35V48.09Zm4.43,0V50h3.56V60.58h2.48V50H97.5V48.09Z"/><path class="cls-2" d="M106.9,48.09h2.49v7.52a5.35,5.35,0,0,1-1.08,3.76,4.73,4.73,0,0,1-3.89,1.41,4.83,4.83,0,0,1-3.9-1.41,5.37,5.37,0,0,1-1.14-3.76V48.09h2.49v7.66a2.69,2.69,0,0,0,.53,2,2.83,2.83,0,0,0,4,0,2.65,2.65,0,0,0,.54-2Zm11.28,2.35a2.24,2.24,0,0,0-1.61-.4h-1.75v3.89h1.75a2.67,2.67,0,0,0,1.61-.4,1.94,1.94,0,0,0,.37-2.72l0,0a.86.86,0,0,0-.34-.34m1.14,10.14-2.88-4.83H114.9v4.83h-2.49V48.09h4.49a5.17,5.17,0,0,1,3.16.81,3.65,3.65,0,0,1,.58,5.12l0,0a4,4,0,0,1-1.75,1.21l3.29,5.24-2.82.06Z"/><path class="cls-2" d="M124.29,48.09V60.51h8.2v-2h-5.71V54.94H132V53h-5.17V50h5.51V48h-8Z"/><path class="cls-2" d="M138.67,60.71A6.64,6.64,0,0,1,134,58.83l1.21-1.74a5.6,5.6,0,0,0,3.36,1.54c1.48,0,2.22-.6,2.22-1.54s-.95-1.28-1.42-1.48-2.08-.74-2.41-.87a3.4,3.4,0,0,1-2.42-3.23c0-1.61,1.14-3.56,4.5-3.56a6.36,6.36,0,0,1,4.16,1.62l-1.07,1.67a5.17,5.17,0,0,0-3.23-1.34c-1.27,0-2,.47-2,1.41s.94,1.27,1.34,1.47,2,.74,2.35.88A3.31,3.31,0,0,1,143.16,57c0,1.81-1.27,3.89-4.7,3.89"/></g></g></svg>