<svg xmlns="http://www.w3.org/2000/svg" width="150" height="100" viewBox="0 0 298.68 59.74"><defs><style>.cls-1{fill:#eff4f4;}</style></defs><g id="Layer_2" data-name="Layer 2"><g id="Layer_1-2" data-name="Layer 1"><path class="cls-1" d="M18.27,25.11,29.87,13.5,41.48,25.11l6.74-6.75L29.87,0,11.52,18.35l6.75,6.76Z"/><path class="cls-1" d="M0,29.87l6.75-6.75,6.75,6.75L6.75,36.62Z"/><path class="cls-1" d="M18.27,34.64l11.6,11.6L41.48,34.63l6.75,6.74h0L29.87,59.74,11.52,41.39v0l6.76-6.73Z"/><path class="cls-1" d="M46.24,29.87,53,23.12l6.75,6.75L53,36.62Z"/><path class="cls-1" d="M36.72,29.86h0L29.87,23l-5.06,5.06-.58.58L23,29.86h0l6.84,6.84,6.85-6.85h0ZM70.26,14.48H85q5.47,0,8.27,2.8a7.31,7.31,0,0,1,2.17,5.39v.11a7.83,7.83,0,0,1-.34,2.4,7.33,7.33,0,0,1-.9,1.87,7.26,7.26,0,0,1-1.3,1.47,8.54,8.54,0,0,1-1.6,1.06,10.85,10.85,0,0,1,4.33,2.85,7.21,7.21,0,0,1,1.57,5v.1a8.26,8.26,0,0,1-.84,3.78A7.37,7.37,0,0,1,93.91,44a11.25,11.25,0,0,1-3.76,1.63,19.85,19.85,0,0,1-4.86.54h-15Zm13.21,12.8a7.21,7.21,0,0,0,3.67-.8,2.72,2.72,0,0,0,1.36-2.55v-.09a2.82,2.82,0,0,0-1.19-2.42,5.83,5.83,0,0,0-3.4-.84H77.05v6.7ZM85.33,40A6.69,6.69,0,0,0,89,39.2a2.85,2.85,0,0,0,1.31-2.6v-.09A3,3,0,0,0,89,34a6.65,6.65,0,0,0-3.94-.91h-8v7h8.28Zm20.56-25.56h7V46.15h-7Zm17.52,0h6.42L144.68,34V14.48h6.87V46.15h-5.92L130.29,26V46.17h-6.88Zm49.24-.24h6.43l13.58,31.91h-7.29L182.47,39H169.1l-2.9,7.11h-7.11ZM180,32.89l-4.19-10.27-4.2,10.28Zm20.21-18.41h6.43L221.45,34V14.48h6.88V46.15H222.4L207.05,26V46.17h-6.87ZM253.41,46.7a16.69,16.69,0,0,1-6.47-1.27,15.64,15.64,0,0,1-8.54-8.64,16.83,16.83,0,0,1-1.22-6.38v-.1A16.7,16.7,0,0,1,238.4,24a16.45,16.45,0,0,1,3.39-5.2A15.87,15.87,0,0,1,247,15.22a16.89,16.89,0,0,1,6.69-1.29,21.11,21.11,0,0,1,4.05.36,16.61,16.61,0,0,1,3.33,1,14,14,0,0,1,2.75,1.54,17.92,17.92,0,0,1,2.35,2l-4.44,5.11A17,17,0,0,0,258,21.31a9.66,9.66,0,0,0-4.32-.95,8.85,8.85,0,0,0-3.69.77A8.67,8.67,0,0,0,247,23.26a9.94,9.94,0,0,0-1.9,3.15,10.63,10.63,0,0,0-.68,3.83v.09a11,11,0,0,0,.68,3.82A10,10,0,0,0,247,37.32a8.72,8.72,0,0,0,6.64,2.94,9.74,9.74,0,0,0,4.59-1A17.55,17.55,0,0,0,262,36.54L266.41,41a22.68,22.68,0,0,1-2.54,2.36A15.07,15.07,0,0,1,261,45.15a14.63,14.63,0,0,1-3.42,1.14,21.6,21.6,0,0,1-4.17.41ZM274.6,14.48h23.85v6.2h-17V27.1H296.4v6.2H281.48V40h17.2v6.2H274.61Z"/></g></g></svg>