<?xml version="1.0" encoding="utf-8"?>
<svg xmlns="http://www.w3.org/2000/svg"  width="150" height="100" viewBox="0 0 249.34 40.58"><defs><style>.cls-1{fill:#eff4f4;}</style></defs><g id="Layer_2" data-name="Layer 2"><g id="Layer_1-2" data-name="Layer 1"><path class="cls-1" d="M21.24.76H44.58a1.51,1.51,0,0,1-.3.85C43.49,3,42.78,4.38,42,5.74c-1.1,1.94-2.13,3.93-3.24,5.86-.71,1.4-1.51,2.75-2.26,4.12H22.89l-.71,0a13,13,0,0,1-.79,1.47c-.35.56-.63,1.16-1,1.72-.36.76-.86,1.43-1.23,2.18C18.44,22.39,17.74,23.68,17,25s-1.51,2.66-2.25,4a16.67,16.67,0,0,0-.85,1.48c-1.54,2.67-3,5.37-4.56,8a3.33,3.33,0,0,1-.51.79c-2.63,0-5.25,0-7.88,0a3.83,3.83,0,0,0-1,.13A4.32,4.32,0,0,1,.81,37.5c.4-.82.93-1.58,1.32-2.4,3.15-5.64,6.27-11.29,9.41-16.93.71-1.22,1.32-2.47,2-3.68.9-1.58,1.73-3.19,2.66-4.75.29-.66.69-1.26,1-1.89,1.16-2.07,2.29-4.14,3.45-6.2A3.85,3.85,0,0,1,21.24.76Z"/><path class="cls-1" d="M48.29,9.06c1.56-2.72,3.06-5.47,4.63-8.17h8.44a2.25,2.25,0,0,1,.36.06c-.28.42-.52.87-.76,1.31-2,3.65-4.06,7.31-6.09,11-.85,1.49-1.63,3-2.5,4.49l-.08,0,0,.18Q46.33,28.59,40.42,39.27H17.19c.45-.92,1-1.79,1.46-2.69,2.2-4.06,4.46-8.08,6.64-12.13H39.55c2.94-5.12,5.82-10.27,8.73-15.4Z"/><path class="cls-1" d="M135.31.78v39h6.75V12.35l12.31,18,12.22-18.47V39.74h6.95V.78h-7.48l-11.64,18L142.65.78Z"/><path class="cls-1" d="M103.73,10.83h4.41V40.07h-4.41Z"/><path class="cls-1" d="M103.35,0h5.17V4.91h-5.17Z"/><path class="cls-1" d="M116.57,2.45h4.61v8.38h9.09v4.09h-9.09V32.28a4.19,4.19,0,0,0,.46,1.93c.78,1.48,2.9,3.24,8.63,1.19v3.78s-5.23,3-10,.27a6.82,6.82,0,0,1-3.35-4.37,10.07,10.07,0,0,1-.37-2.78V14.85l-3.88.07V10.83h3.91Z"/><path class="cls-1" d="M180.65.78V40H210V33.68H187.79V23.28h19.53V17.06H187.76V7.15h22V.78Z"/><path class="cls-1" d="M212.7.78h8.35l9.58,13.77L240.14.78h8.35L234.86,19.91,249.34,40h-8.79l-9.88-14.65L220.31,40H212l14.27-19.92Z"/><path class="cls-1" d="M90.23,19.66s6.46-2.44,6.06-9.45c0,0-.05-6.75-7.65-8.83a14.42,14.42,0,0,0-3.87-.5H66.56l0,39H86.22s11.47-.25,12.28-10.47c0,0,.82-7.15-8.27-9.71ZM71.27,4.9H82.89c9.12,0,8.86,6.39,8.86,6.39.13,7.33-8.24,7.18-8.24,7.18H71.27ZM85.49,35.72H71.27V22.16h13.6c9.11,0,8.85,6.39,8.85,6.39.14,7.32-8.23,7.17-8.23,7.17Z"/></g></g></svg>