<svg xmlns="http://www.w3.org/2000/svg" width="150" height="100" viewBox="0 0 252.87 55.19"><defs><style>.cls-1{fill:#eff4f4;fill-rule:evenodd;}</style></defs><g id="Layer_2" data-name="Layer 2"><g id="Layer_1-2" data-name="Layer 1"><path class="cls-1" d="M19.68,48.23a14.88,14.88,0,0,0,5.52-1s3.52,5.49,3.57,5.53a20.82,20.82,0,0,1-10.13,2.46C7.84,55.19,0,48.08,0,36.72S8.24,18.16,18.64,18.16a19.25,19.25,0,0,1,9.56,2.37c-.33.54-3.35,5.68-3.36,5.7a14.73,14.73,0,0,0-5.48-1C13,25.2,8,29.28,8,36.72,8,43.75,12.8,48.23,19.68,48.23ZM46.92,18.16c10.64,0,18.32,7.52,18.32,18.56S57.56,55.19,46.92,55.19,28.68,47.68,28.68,36.72,36.36,18.16,46.92,18.16Zm0,6.8C41,25,36.68,29.52,36.68,36.72S41,48.39,46.92,48.39c6.08,0,10.32-4.55,10.32-11.67S53,25,46.92,25ZM70.28,54.39V19h7.91V54.39Zm-1-46.31a5,5,0,0,1,9.92,0,5,5,0,1,1-9.92,0ZM85.1,21.2a47.47,47.47,0,0,1,16.24-3c9,0,14.8,3.44,14.8,13.44V54.39H108.3V32.32c0-5.12-3.2-7-7.6-7a27.43,27.43,0,0,0-7.68,1v28H85.1ZM122.77,0h7.92V19.92a19.52,19.52,0,0,1,8.07-1.76c10.25,0,17.92,6.56,17.92,17.92S149.09,55.19,136,55.19a39.12,39.12,0,0,1-13.2-2.32Zm7.92,47.68a19.62,19.62,0,0,0,5.52.71c7.28,0,12.48-4,12.48-12.16,0-6.87-4.88-10.95-10.88-10.95A14.78,14.78,0,0,0,130.69,27Zm48.87-17c0-3.83-2.88-5.59-6.8-5.59a20,20,0,0,0-10.24,2.88V21A23.61,23.61,0,0,1,174,18.16c7.76,0,13.28,3.2,13.28,12.07V53.67a52.78,52.78,0,0,1-12.16,1.44c-9.2,0-15.92-2.8-15.92-10.8,0-7.19,6.16-10.71,16.4-10.71h3.92Zm0,8.24H176.2c-5.52,0-9.12,1.61-9.12,5.2s3.36,5.12,8.16,5.12a28.91,28.91,0,0,0,4.32-.4Zm13.51,5.93a18.66,18.66,0,0,0,10.8,4c3.52,0,5.84-1.2,5.84-4s-2.08-3.93-6.63-5.13C195.71,38,192.59,35,192.59,28.88c0-7.2,5.44-10.72,12.64-10.72a18.38,18.38,0,0,1,10.16,2.72v7.28c-3.12-2.24-6.16-3.6-9.92-3.6-3.44,0-5.28,1.68-5.28,4s1.52,3.52,5.6,4.63c8.08,1.76,11.6,4.81,11.6,11.2,0,7.44-5.68,10.8-13.36,10.8a20.64,20.64,0,0,1-10.95-2.88Zm35.16-6.32v.16c.48,6.31,5.92,9.75,11.44,9.75A20.15,20.15,0,0,0,251.59,45v7c-3.2,2.23-7.92,3.27-12.48,3.27-11,0-18.56-7-18.56-18.23s7.36-18.8,17.12-18.8c10.32,0,15.2,6.64,15.2,16.31v4Zm17.2-5.12c-.16-5.53-2.88-8.56-8-8.56-4.56,0-7.92,3.2-9,8.56Z"/></g></g></svg>