<?xml version="1.0" encoding="utf-8"?>
<svg xmlns="http://www.w3.org/2000/svg" width="150" height="100" viewBox="0 0 190.85 67.55"><defs><style>.cls-1,.cls-2,.cls-3{fill:#eff4f4;}.cls-2{opacity:0.77;}.cls-3{fill-rule:evenodd;}</style></defs><g id="Layer_2" data-name="Layer 2"><g id="Layer_1-2" data-name="Layer 1"><path class="cls-1" d="M107.24,33.7a17.9,17.9,0,0,1-1.09,6.37A15.3,15.3,0,0,1,103,45.3a14.78,14.78,0,0,1-5,3.56,16.45,16.45,0,0,1-6.83,1.31,17.16,17.16,0,0,1-6.8-1.31,14.78,14.78,0,0,1-5-3.56,15.3,15.3,0,0,1-3.12-5.23,19.68,19.68,0,0,1,0-12.73,14.75,14.75,0,0,1,8.16-8.82,16.57,16.57,0,0,1,6.8-1.3A17.4,17.4,0,0,1,98,18.52a15.06,15.06,0,0,1,5,3.56,15.52,15.52,0,0,1,3.12,5.26,19,19,0,0,1,1.09,6.36ZM91.21,45a9.32,9.32,0,0,0,4.07-.84,8.49,8.49,0,0,0,2.93-2.35A10.1,10.1,0,0,0,100,38.21a17.26,17.26,0,0,0,0-8.91,10.27,10.27,0,0,0-1.74-3.56,8.16,8.16,0,0,0-2.93-2.35,10.16,10.16,0,0,0-8.16,0,8.68,8.68,0,0,0-2.93,2.35,9.77,9.77,0,0,0-1.74,3.56,17.26,17.26,0,0,0,0,8.91,10,10,0,0,0,1.74,3.56,8.18,8.18,0,0,0,2.93,2.35,9.46,9.46,0,0,0,4.09.84Zm20.22,4.68V17.8h6.68V33.07L129.18,17.8h7.74L125.21,33.53l12.51,16.11h-8.28L118.11,34V49.64Zm29-31.84h19.15v5.32H147.12v7.7H159V36.1H147.12v8.21h12.59v5.33H140.44V17.8Zm43,0h7.26L180.17,33.63l10.68,16h-7.34l-6.88-10.87-6.87,10.85h-7.34l10.68-16L162.61,17.77h7.27l6.75,10.78Z"/><circle class="cls-2" cx="33.75" cy="15.3" r="15.3"/><circle class="cls-2" cx="33.75" cy="52.25" r="15.3"/><circle class="cls-2" cx="52.23" cy="33.78" r="15.28"/><circle class="cls-2" cx="15.28" cy="33.78" r="15.28"/><path class="cls-3" d="M30.12,30.17A15.31,15.31,0,0,1,18.89,18.93,15.25,15.25,0,0,1,30.12,30.17Z"/><path class="cls-3" d="M18.89,48.64A15.32,15.32,0,0,1,30.12,37.41,15.3,15.3,0,0,1,18.89,48.64Z"/><path class="cls-3" d="M37.36,37.38A15.29,15.29,0,0,1,48.6,48.62,15.25,15.25,0,0,1,37.36,37.38Z"/><path class="cls-3" d="M48.6,18.91A15.32,15.32,0,0,1,37.36,30.15,15.32,15.32,0,0,1,48.6,18.91Z"/></g></g></svg>