<?xml version="1.0" encoding="utf-8"?>
<!-- Generator: Adobe Illustrator 24.2.0, SVG Export Plug-In . SVG Version: 6.00 Build 0)  -->
<svg version="1.1" id="Layer_1" xmlns="http://www.w3.org/2000/svg" xmlns:xlink="http://www.w3.org/1999/xlink" x="0px" y="0px"  width="150" height="100" 
	 viewBox="0 0 374.2 67.7" style="enable-background:new 0 0 374.2 67.7;" xml:space="preserve">
<style type="text/css">
	.st0{enable-background:new    ;}
	.st1{fill:#EFF4F4;}
	.st2{fill:none;}
</style>
<g id="Layer_2_2_">
	<g id="Layer_1-2_1_">
		<g>
			<g class="st0">
				<path class="st1" d="M34,33.6h-6.8l0.1,9.7h4.1l0,1.8C30.1,45,26.3,45,24.7,45c-1.6,0-5.4,0-6.8,0.1l0-1.8h4.1l-0.1-22.6h-4.1
					l0-1.8h15.9c6.3,0,10.1,3.2,10.2,7.4C43.8,30.9,39.4,33.6,34,33.6z M32.2,20.8H27l0,11.3h5.1c5.8,0,5.8-2.9,5.7-5.6
					C37.9,23.7,37.9,20.8,32.2,20.8z"/>
			</g>
			<g class="st0">
				<path class="st1" d="M56.1,45.4c-6.4,0-9.7-3.8-9.8-8.5c0-5.1,3.5-9,9.7-9c6.2,0,9.7,3.9,9.7,9C65.8,41.5,62.5,45.4,56.1,45.4z
					 M60,31.2c-0.8-1.3-2.4-1.9-4-1.9c-1.9,0-3.5,0.8-4.2,2.2c-0.7,1.3-0.6,3.2-0.6,5c0,3.3,0.1,7.4,4.9,7.4s4.8-4.1,4.8-7.4
					C60.8,34.6,60.8,32.5,60,31.2z"/>
				<path class="st1" d="M73.5,45l-4.7,0.1l0-1.8h2.6l-0.1-21.1c0-1.5-0.3-1.5-2.6-1.5l0-1.8l6.8-0.3l0.1,24.7h2.6l0,1.8L73.5,45z"
					/>
				<path class="st1" d="M98.5,30.8l-8.1,17.4c-1,2.2-3.2,4.5-6.1,4.5c-2.3,0-4.1-1.6-4.1-3.5c0-1.5,1.1-2.2,2.2-2.2
					c1.3,0,2.2,0.9,2.2,2.2c0,1.3-0.9,1.9-1.2,2c0.3,0.1,0.4,0.2,0.9,0.2c2.7,0,3.9-2.6,4.7-4.4l0.9-1.8L82.6,30h-2.4l0-1.8l4.4,0.1
					l4.7-0.1l0,1.8h-2.1L92,40.3l4.3-9.4l0.2-0.5c0-0.5-1.8-0.5-1.8-0.5l0-1.8l3.5,0.1c1,0,2.1,0,3-0.1l0,1.8
					C98.8,30,98.7,30.3,98.5,30.8z"/>
			</g>
			<g class="st0">
				<path class="st1" d="M113.3,45.4c-5.9,0-9.5-3.6-9.5-8.7c0-4.4,2.8-8.8,9.6-8.8c2.2,0,6.6,0.2,6.6,3.5c0,1.6-1.2,2.4-2.4,2.4
					c-1,0-2.4-0.7-2.4-2.4c0-0.3,0.1-1.1,0.8-1.8c-0.5-0.1-1.1-0.2-2.5-0.2c-4.9,0-4.9,5-4.9,7.1c0,1.8,0,7.4,5.3,7.4
					c1.9,0,3.8-0.7,4.7-3.1c0.2-0.5,0.2-0.6,0.9-0.6c0.4,0,0.9,0,0.9,0.5C120.6,40.9,119.5,45.4,113.3,45.4z"/>
			</g>
			<g class="st0">
				<path class="st1" d="M139.3,45l-4.8,0.1l0-1.8h2.6L137.1,33c0-2.9-0.8-3.7-2.1-3.7c-2.4,0-5.7,1.9-5.6,6l0,8h2.6l0,1.8l-4.8-0.1
					l-4.8,0.1l0-1.8h2.6l-0.1-21.1c0-1.5-0.3-1.5-2.6-1.5l0-1.8l6.8-0.3l0.1,13h0c0.8-1.4,2.8-3.7,6.4-3.7c3.8,0,5.9,1.5,5.9,5.5
					l0.1,9.9h2.6l0,1.8L139.3,45z"/>
				<path class="st1" d="M165.1,45.1h-1.8c-4,0-4-1.8-4-2.9c-0.8,1.6-2.6,3.2-5.7,3.2c-2.6,0-7.4-0.7-7.4-4.3c0-5.5,9.7-5.9,12.4-6
					l0-1.3c0-2.9-1.3-4.5-4.2-4.5c-0.5,0-1.7,0-2.8,0.3c0.1,0.1,0.8,0.7,0.9,1.9c0,1.6-1.2,2.4-2.4,2.4c-1,0-2.4-0.7-2.4-2.4
					c0-3.4,4.7-3.5,6.8-3.5c5.7,0,8.4,2.5,8.4,5.9l0,8.2c0,0.9,0,1.4,2.3,1.4c0.5,0,1,0,1,0.9C166.3,45.1,165.9,45.1,165.1,45.1z
					 M158.6,36.2c-1.9,0.1-7.9,0.6-7.9,4.8c0,1.7,1.5,3,3.5,3c1,0,4.5-0.5,4.4-4.2L158.6,36.2z"/>
				<path class="st1" d="M172.8,45l-4.7,0.1l0-1.8h2.6l-0.1-11.8c0-1.5-0.3-1.5-2.5-1.5l0-1.8l6.6-0.3l0.1,15.4h2.4l0,1.8L172.8,45z
					 M172.3,25c-1.6,0-3-1.3-3-3c0-1.6,1.3-3,3-3c1.6,0,3,1.3,3,3C175.3,23.6,174,25,172.3,25z"/>
				<path class="st1" d="M197.2,45l-4.8,0.1l0-1.8h2.6L195,33c0-2.9-0.8-3.7-2.1-3.7c-2.4,0-5.7,1.9-5.6,6l0,8h2.6l0,1.8l-4.8-0.1
					l-4.8,0.1l0-1.8h2.6l-0.1-11.8c0-1.5-0.3-1.5-2.6-1.5l0-1.8l6.5-0.3l0,4.1c1-1.9,3-4.1,6.7-4.1c3.8,0,5.9,1.5,5.9,5.5l0.1,9.9
					h2.6l0,1.8L197.2,45z"/>
				<path class="st1" d="M235.3,45.6c-9.5,0-15.4-5.7-15.4-13.5s5.8-13.5,15.3-13.5c2.6,0,5.2,0.7,7.5,2.6l2.5-2.3
					c0.3-0.3,0.4-0.3,0.7-0.3c0.7,0,0.7,0.3,0.7,1.1l0,8.2c0,1,0,1.1-1,1.1c-0.9,0-0.9-0.1-1-0.8c-0.9-4.8-4.5-7.7-8.7-7.7
					c-2,0-5.3,0.4-7.7,2.9c-2.4,2.5-2.5,6.6-2.5,8.8c0,3.4,0.5,6.3,2.3,8.5c2,2.3,5.2,3.2,8.2,3.2c3.9,0,8.5-2.3,8.7-7.4
					c0-0.6,0.3-0.6,0.8-0.6c0.6,0,0.9,0,0.9,0.8C246.7,40.9,242.4,45.6,235.3,45.6z"/>
				<path class="st1" d="M269.3,45.1h-1.8c-4,0-4-1.8-4-2.9c-0.8,1.6-2.6,3.2-5.7,3.2c-2.6,0-7.4-0.7-7.4-4.3c0-5.5,9.7-5.9,12.4-6
					l0-1.3c0-2.9-1.3-4.5-4.2-4.5c-0.5,0-1.7,0-2.8,0.3c0.1,0.1,0.8,0.7,0.9,1.9c0,1.6-1.2,2.4-2.4,2.4c-1,0-2.4-0.7-2.4-2.4
					c0-3.4,4.7-3.5,6.8-3.5c5.7,0,8.4,2.5,8.4,5.9l0,8.2c0,0.9,0,1.4,2.3,1.4c0.5,0,1,0,1,0.9C270.5,45.1,270.1,45.1,269.3,45.1z
					 M262.8,36.2c-1.9,0.1-7.9,0.6-7.9,4.8c0,1.7,1.5,3,3.5,3c1,0,4.5-0.5,4.4-4.2L262.8,36.2z"/>
				<path class="st1" d="M283.8,45.4c-1.6,0-3.2-0.4-4.9-1.7l0,7.1h2.6l0,1.8l-4.8-0.1l-4.8,0.1l0-1.8h2.6l-0.1-19.2
					c0-1.4-0.3-1.4-2.7-1.4l0-1.8l6.7-0.3l0,1.9c0.9-0.7,2.9-1.9,5.7-1.9c5.5,0,9,3.6,9,8.7C293.4,41.9,289.6,45.4,283.8,45.4z
					 M283.8,29.5c-0.8,0-2.8,0.2-4.3,1.8c-0.6,0.5-0.6,0.6-0.6,1.3l0.1,8.1c0,0.7,0,0.8,0.4,1.3c1.7,2.1,3.5,2.1,4.1,2.1
					c2.5,0,5.2-2,5.1-7.4C288.5,31.8,286.3,29.5,283.8,29.5z"/>
				<path class="st1" d="M301.4,45l-4.7,0.1l0-1.8h2.6l-0.1-11.8c0-1.5-0.3-1.5-2.5-1.5l0-1.8l6.6-0.3l0.1,15.4h2.4l0,1.8L301.4,45z
					 M300.9,25c-1.6,0-3-1.3-3-3c0-1.6,1.3-3,3-3c1.6,0,3,1.3,3,3C303.9,23.6,302.6,25,300.9,25z"/>
				<path class="st1" d="M317.1,45.4c-2.7,0-6-0.8-6-4.9L310.9,30h-3.1l0-1.4c3.8-0.1,5.6-3.9,5.7-7.7h1.8l0,7.3h5.6l0,1.8h-5.6
					l0.1,10.5c0,0.9,0,3.3,2.2,3.3c1.1,0,2.3-0.9,2.3-3.5l0-1.9h1.8l0,2C321.7,43.2,320,45.4,317.1,45.4z"/>
				<path class="st1" d="M344.2,45.1h-1.8c-4,0-4-1.8-4-2.9c-0.8,1.6-2.6,3.2-5.7,3.2c-2.6,0-7.4-0.7-7.4-4.3c0-5.5,9.7-5.9,12.4-6
					l0-1.3c0-2.9-1.3-4.5-4.2-4.5c-0.5,0-1.7,0-2.8,0.3c0.1,0.1,0.8,0.7,0.9,1.9c0,1.6-1.2,2.4-2.4,2.4c-1,0-2.4-0.7-2.4-2.4
					c0-3.4,4.7-3.5,6.8-3.5c5.7,0,8.4,2.5,8.4,5.9l0,8.2c0,0.9,0,1.4,2.3,1.4c0.5,0,1,0,1,0.9C345.4,45.1,345,45.1,344.2,45.1z
					 M337.7,36.2c-1.9,0.1-7.9,0.6-7.9,4.8c0,1.7,1.5,3,3.5,3c1,0,4.5-0.5,4.4-4.2L337.7,36.2z"/>
				<path class="st1" d="M352,45l-4.7,0.1l0-1.8h2.6l-0.1-21.1c0-1.5-0.3-1.5-2.6-1.5l0-1.8l6.8-0.3l0.1,24.7h2.6l0,1.8L352,45z"/>
			</g>
		</g>
		<g>
			<rect x="11.7" y="2" class="st2" width="350.9" height="63.6"/>
		</g>
		<g>
			<path class="st1" d="M374.2,67.7H0V0h374.2V67.7z M2,65.7h370.2V2H2V65.7z"/>
		</g>
	</g>
</g>
</svg>
